<svg xmlns="http://www.w3.org/2000/svg" width="512" height="512" viewBox="0 0 512 512" role="img" aria-label="學 — Learn Chinese">
  <!--
    App icon / favicon — "學" (learn; Traditional, 16-stroke U+5B78) inked in
    brush calligraphy on a warm cream paper tile, with a vermilion traditional
    seal (印章) in the bottom-right corner carrying a reversed 中 (中文).

    The 學 and the seal's 中 are NOT live font glyphs: they are the outlines of
    the STKaitiTC-Black (楷體 / Kai brush) glyphs for U+5B78 / U+4E2D, baked to
    <path>s so the icon renders identically everywhere without depending on a
    CJK font being installed. Kai-Black supplies the confident, inked,
    natural stroke-weight variation the brand wants and stays legible down to a
    brush mark at 16px.

    Palette:
      cream paper  #F4EFE4   (tile)
      brush ink    #1A1A18   (學)
      seal red     #B23A2E   (印章 vermilion)
      brand navy   #073464   (theme_color / background_color — not drawn here)
  -->
  <defs>
    <radialGradient id="paper" cx="38%" cy="30%" r="80%">
      <stop offset="0%"  stop-color="#F8F3E9"/>
      <stop offset="60%" stop-color="#F4EFE4"/>
      <stop offset="100%" stop-color="#ECE4D4"/>
    </radialGradient>
    <clipPath id="tile"><rect width="512" height="512" rx="112"/></clipPath>
    <!-- mask to punch a reversed 中 out of the seal field -->
    <mask id="sealMark">
      <rect width="112" height="112" fill="#fff"/>
      <path d="M843 421Q824 409 806.5 384.5Q789 360 765 311Q785 299 792 286.5Q799 274 794.5 264.5Q790 255 773.5 249.5Q757 244 730 244Q700 245 654 242.5Q608 240 554 235Q553 210 552.5 185Q552 160 550 133Q547 73 544 33Q541 -7 537.5 -35Q534 -63 529 -84Q524 -105 517 -127Q497 -186 482 -183.5Q467 -181 458 -129Q453 -96 450.5 -67Q448 -38 448 3Q448 70 448.5 122Q449 174 450 224Q419 220 388.5 218Q358 216 328 214Q322 172 305 163.5Q288 155 268 175Q260 183 255 190Q250 197 247 206.5Q244 216 242 229.5Q240 243 238 263Q234 307 228 335.5Q222 364 212 391Q195 433 180 447Q145 477 159.5 486.5Q174 496 232 487Q240 485 247 484.5Q254 484 260 482Q281 484 301.5 486.5Q322 489 344 492Q366 495 391.5 498Q417 501 450 506Q450 548 449 576Q448 604 445.5 623Q443 642 438 654Q433 666 426 675Q384 729 396 742Q408 755 485 733Q522 722 543 714.5Q564 707 573 698Q582 689 580 676.5Q578 664 568 645Q561 632 557.5 602.5Q554 573 555 520Q594 525 619 529Q644 533 659.5 536Q675 539 684 542Q693 545 700 548Q716 556 727 559.5Q738 563 748.5 560.5Q759 558 771.5 550Q784 542 804 526Q834 502 849.5 486Q865 470 869 459Q873 448 866 439.5Q859 431 843 421ZM703 456Q707 482 675 479Q657 477 626 474.5Q595 472 556 467Q558 421 557.5 379.5Q557 338 556 296Q601 302 627.5 306Q654 310 671 313Q682 343 689 377Q696 411 703 456ZM451 283Q452 321 452 362.5Q452 404 451 454Q414 449 377.5 444.5Q341 440 309 435Q316 403 321.5 357Q327 311 329 269Q364 273 394.5 276.5Q425 280 451 283Z" transform="translate(56 56) scale(0.0481500512341301 -0.0481500512341301) translate(-512.8535353535353 -281.6161900111607)" fill="#000"/>
    </mask>
  </defs>

  <!-- full-bleed cream rounded-square tile (the tile IS the icon) -->
  <rect width="512" height="512" rx="112" fill="url(#paper)"/>

  <g clip-path="url(#tile)">
    <!-- inked 學 (baked Kai-Black outline), near-black -->
    <g transform="translate(242 240) scale(0.4213794154542364 -0.4213794154542364) translate(-507.0871794871794 -300.64343434343436)">
      <path d="M491 230Q508 247 519 258Q530 269 538 280Q549 295 547.5 298Q546 301 529 298Q501 293 467.5 283.5Q434 274 394 263Q368 255 354.5 257Q341 259 319 274Q285 296 287.5 303Q290 310 336 311Q360 311 388 314.5Q416 318 443 323.5Q470 329 493 335.5Q516 342 530 350Q544 357 554 361Q564 365 574 364Q584 363 594.5 357Q605 351 621 339Q644 322 655.5 311Q667 300 668 292.5Q669 285 660 280Q651 275 634 270Q612 263 585 247.5Q558 232 526 210Q533 203 538 193Q589 201 633 207.5Q677 214 703 219Q737 225 759 227.5Q781 230 796 228Q811 226 821 219.5Q831 213 841 201Q877 157 869 143.5Q861 130 805 139Q758 147 690.5 146Q623 145 554 140Q556 125 557.5 106.5Q559 88 559 65Q560 29 556.5 2.5Q553 -24 545.5 -44Q538 -64 525.5 -80Q513 -96 497 -110Q443 -157 421 -105Q413 -87 399 -68.5Q385 -50 359 -25Q323 9 326.5 15.5Q330 22 378 13Q406 8 423 6.5Q440 5 448.5 8.5Q457 12 460 21Q463 30 464 47Q466 74 465.5 95Q465 116 463 133Q415 129 378.5 125Q342 121 314 117.5Q286 114 263.5 109.5Q241 105 220 99Q193 91 177.5 94Q162 97 140 115Q101 147 104 156Q107 165 162 159Q178 157 207.5 158.5Q237 160 275.5 163Q314 166 358.5 171Q403 176 448 182Q411 217 418 228Q425 239 491 230ZM469 529Q474 544 474 551Q474 571 485 573.5Q496 576 521 553Q544 531 546.5 521.5Q549 512 535 508Q531 507 525 503Q547 484 547 454Q547 428 534 424.5Q521 421 507 436Q501 443 495 449Q489 455 483 461Q467 446 450 435.5Q433 425 410 416Q376 401 372 405.5Q368 410 398 439Q412 453 424 466Q436 479 446 491Q439 497 432 502.5Q425 508 418 513Q386 536 390 542Q394 548 433 539Q443 537 452 534.5Q461 532 469 529ZM476 670Q486 693 481 703Q470 727 482 732.5Q494 738 532 716Q556 702 560.5 692.5Q565 683 549 665Q544 658 540 653Q536 648 531 643Q544 632 548.5 619.5Q553 607 553 589Q553 557 542 552.5Q531 548 514 568Q508 575 501.5 582Q495 589 487 596Q475 587 461 579.5Q447 572 427 564Q394 549 392.5 554Q391 559 411 578Q434 601 453 628Q444 636 435 644.5Q426 653 415 661Q386 684 388 690Q390 696 423 686Q438 681 451.5 677.5Q465 674 476 670ZM246 637Q268 657 275.5 668.5Q283 680 282 690Q281 702 282.5 708.5Q284 715 290.5 715.5Q297 716 310 711Q323 706 344 695Q362 685 370 677.5Q378 670 378 664Q378 658 372 654Q366 650 356 647Q334 641 316.5 635Q299 629 282 621Q282 610 283.5 596.5Q285 583 288 561Q307 571 319.5 576.5Q332 582 340.5 584Q349 586 355 585.5Q361 585 367 582Q385 575 383.5 562.5Q382 550 361 543Q344 538 328.5 534.5Q313 531 293 528Q295 518 297 507Q299 496 301 482Q321 491 335 496Q349 501 359.5 502.5Q370 504 378.5 501.5Q387 499 396 493Q414 482 408.5 472Q403 462 380 457Q370 455 350.5 452Q331 449 307 446Q309 434 312 420Q315 406 317 391Q392 399 481 410Q570 421 658 435L659 435Q661 446 662.5 455.5Q664 465 666 474Q632 469 616 472Q600 475 584 485Q561 499 563 505Q565 511 591 513Q613 515 631 516Q649 517 675 519Q677 530 679 539.5Q681 549 683 559Q662 555 648.5 553.5Q635 552 626 552.5Q617 553 610.5 556Q604 559 596 565Q575 580 576.5 586Q578 592 604 595Q628 598 647 600.5Q666 603 691 605Q694 625 695 636Q696 647 693 651.5Q690 656 683.5 655Q677 654 666 650Q649 644 638 641Q627 638 618.5 638.5Q610 639 603 643Q596 647 587 655Q567 672 570.5 678Q574 684 600 686Q627 688 651.5 695.5Q676 703 693 713Q702 718 709 720.5Q716 723 724 721.5Q732 720 743.5 714Q755 708 773 696Q792 683 802.5 674Q813 665 815 657Q817 649 811.5 642Q806 635 795 627Q784 619 774.5 607Q765 595 760 580Q754 560 748.5 544Q743 528 738.5 512.5Q734 497 729 480.5Q724 464 718 443Q735 445 752 448.5Q769 452 783 457Q802 463 816 465Q830 467 843.5 462.5Q857 458 873.5 445.5Q890 433 913 410Q945 378 944.5 362.5Q944 347 904 342Q884 340 868 337Q852 334 836.5 330.5Q821 327 804.5 321.5Q788 316 766 308Q736 297 730.5 304.5Q725 312 743 335Q759 356 767 367.5Q775 379 775 384Q775 389 766.5 390Q758 391 742 391Q731 391 705 389.5Q679 388 644 385Q609 382 568.5 378.5Q528 375 488 371Q448 367 411.5 362.5Q375 358 349 353Q322 348 300 345Q278 342 259.5 342Q241 342 225 344.5Q209 347 193 352Q188 328 179.5 309Q171 290 156 268Q133 234 109 233.5Q85 233 75 269Q67 300 71 314.5Q75 329 92 343Q105 354 116 369Q127 384 135 406Q146 436 159 434Q172 432 193 382Q207 383 223.5 383.5Q240 384 259 386Q243 453 233 491.5Q223 530 215.5 551.5Q208 573 202 582.5Q196 592 189 600Q177 613 173 621Q169 629 175 633.5Q181 638 198 639Q215 640 246 637Z" fill="#1A1A18"/>
    </g>

    <!-- vermilion traditional seal (印章), bottom-right, with reversed 中 -->
    <g transform="translate(366 366)">
      <rect width="112" height="112" rx="20" fill="#B23A2E" mask="url(#sealMark)"/>
      <!-- thin reversed keyline just inside the seal edge -->
      <rect x="8" y="8" width="96" height="96" rx="13" fill="none" stroke="#B23A2E" stroke-width="0"/>
      <rect x="9" y="9" width="94" height="94" rx="12" fill="none" stroke="#F4EFE4" stroke-width="4" opacity="0.9"/>
    </g>

    <!-- whisper-thin ink keyline so the cream tile reads on white pages -->
    <rect x="2" y="2" width="508" height="508" rx="110" fill="none" stroke="#1A1A18" stroke-width="3" opacity="0.06"/>
  </g>
</svg>